<svg width="14" height="15" viewBox="0 0 14 15" fill="none" xmlns="http://www.w3.org/2000/svg">
<path opacity="0.3" d="M5.84996 3.47194C5.84996 4.80089 4.69858 5.93332 3.20833 5.93332C1.71809 5.93332 0.566711 4.80089 0.566711 3.47194C0.566711 2.14298 1.71809 1.01056 3.20833 1.01056C4.69858 1.01056 5.84996 2.14298 5.84996 3.47194Z" stroke="black" stroke-width="1.13342"/>
<path opacity="0.3" d="M13.4333 3.47194C13.4333 4.80089 12.2819 5.93332 10.7917 5.93332C9.30142 5.93332 8.15005 4.80089 8.15005 3.47194C8.15005 2.14298 9.30142 1.01056 10.7917 1.01056C12.2819 1.01056 13.4333 2.14298 13.4333 3.47194Z" stroke="black" stroke-width="1.13342"/>
<path opacity="0.3" d="M5.84996 11.5281C5.84996 12.857 4.69858 13.9895 3.20833 13.9895C1.71809 13.9895 0.566711 12.857 0.566711 11.5281C0.566711 10.1991 1.71809 9.06671 3.20833 9.06671C4.69858 9.06671 5.84996 10.1991 5.84996 11.5281Z" stroke="black" stroke-width="1.13342"/>
<path opacity="0.3" d="M13.4333 11.5281C13.4333 12.857 12.2819 13.9895 10.7917 13.9895C9.30142 13.9895 8.15004 12.857 8.15004 11.5281C8.15004 10.1991 9.30142 9.06671 10.7917 9.06671C12.2819 9.06671 13.4333 10.1991 13.4333 11.5281Z" stroke="black" stroke-width="1.13342"/>
</svg>
