<svg width="16" height="16" viewBox="0 0 16 16" fill="none" xmlns="http://www.w3.org/2000/svg">
<g clip-path="url(#clip0_124_6)">
<path fill-rule="evenodd" clip-rule="evenodd" d="M14 4.5V11H13V4.5H11C10.6022 4.5 10.2206 4.34196 9.93934 4.06066C9.65804 3.77936 9.5 3.39782 9.5 3V1H4C3.73478 1 3.48043 1.10536 3.29289 1.29289C3.10536 1.48043 3 1.73478 3 2V11H2V2C2 1.46957 2.21071 0.960859 2.58579 0.585786C2.96086 0.210714 3.46957 0 4 0L9.5 0L14 4.5ZM7.161 14.188V13.666C7.16944 13.4463 7.1295 13.2275 7.044 13.025C6.97767 12.8668 6.86553 12.732 6.722 12.638C6.58134 12.5508 6.41849 12.506 6.253 12.509C6.0868 12.5065 5.92336 12.5516 5.782 12.639C5.63976 12.7335 5.52848 12.8677 5.462 13.025C5.3765 13.2275 5.33656 13.4463 5.345 13.666V14.188C5.345 14.444 5.384 14.6577 5.462 14.829C5.52831 14.9866 5.63961 15.1213 5.782 15.216C5.92442 15.3005 6.0874 15.3441 6.253 15.342C6.41793 15.3438 6.58017 15.3002 6.722 15.216C6.86538 15.1223 6.9775 14.9879 7.044 14.83C7.12812 14.6267 7.168 14.4079 7.161 14.188ZM7.964 13.672V14.185C7.964 14.5603 7.89567 14.8847 7.759 15.158C7.62958 15.4211 7.42446 15.6394 7.17 15.785C6.916 15.929 6.61033 16.001 6.253 16.001C5.93285 16.0094 5.61596 15.935 5.333 15.785C5.07815 15.6399 4.87291 15.4214 4.744 15.158C4.60057 14.8541 4.53036 14.5209 4.539 14.185V13.672C4.539 13.2927 4.60733 12.9677 4.744 12.697C4.88067 12.423 5.07733 12.214 5.334 12.07C5.59133 11.9233 5.898 11.85 6.254 11.85C6.61067 11.85 6.916 11.9233 7.17 12.07C7.42533 12.216 7.622 12.426 7.76 12.7C7.896 12.9707 7.964 13.2947 7.964 13.672ZM1 15.925V11.926H2.459C2.865 11.926 3.2 12.0043 3.464 12.161C3.728 12.3163 3.92433 12.543 4.053 12.841C4.18367 13.1377 4.249 13.4957 4.249 13.915C4.249 14.3377 4.18367 14.699 4.053 14.999C3.92167 15.2997 3.72333 15.5293 3.458 15.688C3.194 15.846 2.861 15.925 2.459 15.925H1ZM2.354 12.571H1.79V15.278H2.353C2.53767 15.278 2.69867 15.2507 2.836 15.196C2.96772 15.1431 3.08299 15.0561 3.17 14.944C3.258 14.8307 3.32333 14.69 3.366 14.522C3.41424 14.3285 3.4371 14.1294 3.434 13.93C3.434 13.63 3.39467 13.379 3.316 13.177C3.25089 12.991 3.12652 12.8315 2.962 12.723C2.804 12.6217 2.60067 12.571 2.352 12.571H2.354ZM9.11 13.687C9.11 13.4383 9.14433 13.2273 9.213 13.054C9.27232 12.8948 9.37696 12.7564 9.514 12.656C9.65378 12.561 9.82006 12.5127 9.989 12.518C10.139 12.518 10.2717 12.5503 10.387 12.615C10.5001 12.6751 10.5945 12.765 10.66 12.875C10.7297 12.9907 10.7708 13.1213 10.78 13.256H11.545V13.183C11.5384 12.9988 11.4935 12.818 11.4133 12.652C11.3331 12.4861 11.2192 12.3386 11.079 12.219C10.9357 12.0962 10.769 12.0037 10.589 11.947C10.394 11.8802 10.1891 11.8474 9.983 11.85C9.627 11.85 9.32333 11.9243 9.072 12.073C8.822 12.221 8.63167 12.432 8.501 12.706C8.36967 12.9793 8.304 13.3053 8.304 13.684V14.182C8.304 14.5607 8.36867 14.886 8.498 15.158C8.628 15.4287 8.81833 15.6377 9.069 15.785C9.319 15.929 9.62367 16.001 9.983 16.001C10.2763 16.001 10.538 15.9463 10.768 15.837C10.998 15.7277 11.1817 15.5763 11.319 15.383C11.457 15.1844 11.5354 14.9506 11.545 14.709V14.633H10.78C10.771 14.762 10.7308 14.8869 10.663 14.997C10.5958 15.1026 10.5015 15.1882 10.39 15.245C10.2649 15.3048 10.1277 15.335 9.989 15.333C9.82019 15.3378 9.65378 15.2922 9.511 15.202C9.37414 15.1042 9.27022 14.9672 9.213 14.809C9.13957 14.6083 9.10462 14.3956 9.11 14.182V13.687ZM14.202 11.927H15.096L13.821 13.933L15.075 15.925H14.167L13.317 14.51H13.282L12.43 15.925H11.568L12.808 13.91L11.58 11.926H12.512L13.344 13.365H13.379L14.202 11.927Z" fill="#114091"/>
</g>
<defs>
<clipPath id="clip0_124_6">
<rect width="16" height="16" fill="white"/>
</clipPath>
</defs>
</svg>
