<svg width="24" height="25" viewBox="0 0 24 25" fill="none" xmlns="http://www.w3.org/2000/svg">
<g filter="url(#filter0_d_124_8)">
<path d="M18.1875 6.375H15.6562V5.53125C15.6562 5.00911 15.4488 4.50835 15.0796 4.13913C14.7104 3.76992 14.2096 3.5625 13.6875 3.5625H10.3125C9.79036 3.5625 9.2896 3.76992 8.92038 4.13913C8.55117 4.50835 8.34375 5.00911 8.34375 5.53125V6.375H5.8125C5.58872 6.375 5.37411 6.46389 5.21588 6.62213C5.05764 6.78036 4.96875 6.99497 4.96875 7.21875C4.96875 7.44253 5.05764 7.65714 5.21588 7.81537C5.37411 7.97361 5.58872 8.0625 5.8125 8.0625H6.09375V17.625C6.09375 17.998 6.24191 18.3556 6.50563 18.6194C6.76935 18.8831 7.12704 19.0312 7.5 19.0312H16.5C16.873 19.0312 17.2306 18.8831 17.4944 18.6194C17.7581 18.3556 17.9062 17.998 17.9062 17.625V8.0625H18.1875C18.4113 8.0625 18.6259 7.97361 18.7841 7.81537C18.9424 7.65714 19.0312 7.44253 19.0312 7.21875C19.0312 6.99497 18.9424 6.78036 18.7841 6.62213C18.6259 6.46389 18.4113 6.375 18.1875 6.375ZM10.0312 5.53125C10.0312 5.45666 10.0609 5.38512 10.1136 5.33238C10.1664 5.27963 10.2379 5.25 10.3125 5.25H13.6875C13.7621 5.25 13.8336 5.27963 13.8864 5.33238C13.9391 5.38512 13.9688 5.45666 13.9688 5.53125V6.375H10.0312V5.53125ZM16.2188 17.3438H7.78125V8.0625H16.2188V17.3438ZM11.1562 10.3125V14.8125C11.1562 15.0363 11.0674 15.2509 10.9091 15.4091C10.7509 15.5674 10.5363 15.6562 10.3125 15.6562C10.0887 15.6562 9.87411 15.5674 9.71588 15.4091C9.55764 15.2509 9.46875 15.0363 9.46875 14.8125V10.3125C9.46875 10.0887 9.55764 9.87411 9.71588 9.71588C9.87411 9.55764 10.0887 9.46875 10.3125 9.46875C10.5363 9.46875 10.7509 9.55764 10.9091 9.71588C11.0674 9.87411 11.1562 10.0887 11.1562 10.3125ZM14.5312 10.3125V14.8125C14.5312 15.0363 14.4424 15.2509 14.2841 15.4091C14.1259 15.5674 13.9113 15.6562 13.6875 15.6562C13.4637 15.6562 13.2491 15.5674 13.0909 15.4091C12.9326 15.2509 12.8438 15.0363 12.8438 14.8125V10.3125C12.8438 10.0887 12.9326 9.87411 13.0909 9.71588C13.2491 9.55764 13.4637 9.46875 13.6875 9.46875C13.9113 9.46875 14.1259 9.55764 14.2841 9.71588C14.4424 9.87411 14.5312 10.0887 14.5312 10.3125Z" fill="white"/>
</g>
<defs>
<filter id="filter0_d_124_8" x="0.96875" y="0.5625" width="22.0625" height="23.4688" filterUnits="userSpaceOnUse" color-interpolation-filters="sRGB">
<feFlood flood-opacity="0" result="BackgroundImageFix"/>
<feColorMatrix in="SourceAlpha" type="matrix" values="0 0 0 0 0 0 0 0 0 0 0 0 0 0 0 0 0 0 127 0" result="hardAlpha"/>
<feOffset dy="1"/>
<feGaussianBlur stdDeviation="2"/>
<feComposite in2="hardAlpha" operator="out"/>
<feColorMatrix type="matrix" values="0 0 0 0 1 0 0 0 0 1 0 0 0 0 1 0 0 0 0.25 0"/>
<feBlend mode="normal" in2="BackgroundImageFix" result="effect1_dropShadow_124_8"/>
<feBlend mode="normal" in="SourceGraphic" in2="effect1_dropShadow_124_8" result="shape"/>
</filter>
</defs>
</svg>
