<svg width="26" height="26" viewBox="0 0 26 26" fill="none" xmlns="http://www.w3.org/2000/svg">
<rect x="1" y="1" width="24" height="24" rx="12" fill="white"/>
<rect x="0.5" y="0.5" width="25" height="25" rx="12.5" stroke="black" stroke-opacity="0.1"/>
<path d="M17.9501 8.50001H15.7001V8.05001C15.7001 7.69197 15.5579 7.34859 15.3047 7.09542C15.0515 6.84224 14.7081 6.70001 14.3501 6.70001H11.6501C11.2921 6.70001 10.9487 6.84224 10.6955 7.09542C10.4423 7.34859 10.3001 7.69197 10.3001 8.05001V8.50001H8.0501C7.93075 8.50001 7.81629 8.54742 7.7319 8.63181C7.64751 8.71621 7.6001 8.83066 7.6001 8.95001C7.6001 9.06936 7.64751 9.18382 7.7319 9.26821C7.81629 9.3526 7.93075 9.40001 8.0501 9.40001H8.5001V17.5C8.5001 17.7387 8.59492 17.9676 8.7637 18.1364C8.93248 18.3052 9.1614 18.4 9.4001 18.4H16.6001C16.8388 18.4 17.0677 18.3052 17.2365 18.1364C17.4053 17.9676 17.5001 17.7387 17.5001 17.5V9.40001H17.9501C18.0694 9.40001 18.1839 9.3526 18.2683 9.26821C18.3527 9.18382 18.4001 9.06936 18.4001 8.95001C18.4001 8.83066 18.3527 8.71621 18.2683 8.63181C18.1839 8.54742 18.0694 8.50001 17.9501 8.50001ZM12.1001 15.25C12.1001 15.3694 12.0527 15.4838 11.9683 15.5682C11.8839 15.6526 11.7694 15.7 11.6501 15.7C11.5308 15.7 11.4163 15.6526 11.3319 15.5682C11.2475 15.4838 11.2001 15.3694 11.2001 15.25V11.65C11.2001 11.5307 11.2475 11.4162 11.3319 11.3318C11.4163 11.2474 11.5308 11.2 11.6501 11.2C11.7694 11.2 11.8839 11.2474 11.9683 11.3318C12.0527 11.4162 12.1001 11.5307 12.1001 11.65V15.25ZM14.8001 15.25C14.8001 15.3694 14.7527 15.4838 14.6683 15.5682C14.5839 15.6526 14.4694 15.7 14.3501 15.7C14.2308 15.7 14.1163 15.6526 14.0319 15.5682C13.9475 15.4838 13.9001 15.3694 13.9001 15.25V11.65C13.9001 11.5307 13.9475 11.4162 14.0319 11.3318C14.1163 11.2474 14.2308 11.2 14.3501 11.2C14.4694 11.2 14.5839 11.2474 14.6683 11.3318C14.7527 11.4162 14.8001 11.5307 14.8001 11.65V15.25ZM14.8001 8.50001H11.2001V8.05001C11.2001 7.93066 11.2475 7.81621 11.3319 7.73181C11.4163 7.64742 11.5308 7.60001 11.6501 7.60001H14.3501C14.4694 7.60001 14.5839 7.64742 14.6683 7.73181C14.7527 7.81621 14.8001 7.93066 14.8001 8.05001V8.50001Z" fill="#AE2727"/>
</svg>
