<svg width="74" height="74" viewBox="0 0 74 74" fill="none" xmlns="http://www.w3.org/2000/svg">
<g filter="url(#filter0_dd_159_17)">
<path d="M37 16.75C33.7861 16.75 30.6443 17.703 27.972 19.4886C25.2997 21.2742 23.2169 23.8121 21.987 26.7814C20.757 29.7507 20.4352 33.018 21.0622 36.1702C21.6893 39.3224 23.2369 42.2179 25.5095 44.4905C27.7821 46.7631 30.6776 48.3108 33.8298 48.9378C36.982 49.5648 40.2493 49.243 43.2186 48.013C46.1879 46.7831 48.7258 44.7003 50.5114 42.028C52.297 39.3557 53.25 36.2139 53.25 33C53.2446 28.6919 51.5309 24.5618 48.4846 21.5155C45.4383 18.4691 41.3081 16.7554 37 16.75ZM43.25 34.25H38.25V39.25C38.25 39.5815 38.1183 39.8995 37.8839 40.1339C37.6495 40.3683 37.3315 40.5 37 40.5C36.6685 40.5 36.3505 40.3683 36.1161 40.1339C35.8817 39.8995 35.75 39.5815 35.75 39.25V34.25H30.75C30.4185 34.25 30.1005 34.1183 29.8661 33.8839C29.6317 33.6495 29.5 33.3315 29.5 33C29.5 32.6685 29.6317 32.3505 29.8661 32.1161C30.1005 31.8817 30.4185 31.75 30.75 31.75H35.75V26.75C35.75 26.4185 35.8817 26.1005 36.1161 25.8661C36.3505 25.6317 36.6685 25.5 37 25.5C37.3315 25.5 37.6495 25.6317 37.8839 25.8661C38.1183 26.1005 38.25 26.4185 38.25 26.75V31.75H43.25C43.5815 31.75 43.8995 31.8817 44.1339 32.1161C44.3683 32.3505 44.5 32.6685 44.5 33C44.5 33.3315 44.3683 33.6495 44.1339 33.8839C43.8995 34.1183 43.5815 34.25 43.25 34.25Z" fill="#313131"/>
<path d="M43.25 34.25H38.25V39.25C38.25 39.5815 38.1183 39.8995 37.8839 40.1339C37.6495 40.3683 37.3315 40.5 37 40.5C36.6685 40.5 36.3505 40.3683 36.1161 40.1339C35.8817 39.8995 35.75 39.5815 35.75 39.25V34.25H30.75C30.4185 34.25 30.1005 34.1183 29.8661 33.8839C29.6317 33.6495 29.5 33.3315 29.5 33C29.5 32.6685 29.6317 32.3505 29.8661 32.1161C30.1005 31.8817 30.4185 31.75 30.75 31.75H35.75V26.75C35.75 26.4185 35.8817 26.1005 36.1161 25.8661C36.3505 25.6317 36.6685 25.5 37 25.5C37.3315 25.5 37.6495 25.6317 37.8839 25.8661C38.1183 26.1005 38.25 26.4185 38.25 26.75V31.75H43.25C43.5815 31.75 43.8995 31.8817 44.1339 32.1161C44.3683 32.3505 44.5 32.6685 44.5 33C44.5 33.3315 44.3683 33.6495 44.1339 33.8839C43.8995 34.1183 43.5815 34.25 43.25 34.25Z" fill="white"/>
</g>
<defs>
<filter id="filter0_dd_159_17" x="0.75" y="0.75" width="72.5" height="72.5" filterUnits="userSpaceOnUse" color-interpolation-filters="sRGB">
<feFlood flood-opacity="0" result="BackgroundImageFix"/>
<feColorMatrix in="SourceAlpha" type="matrix" values="0 0 0 0 0 0 0 0 0 0 0 0 0 0 0 0 0 0 127 0" result="hardAlpha"/>
<feOffset dy="0.5"/>
<feGaussianBlur stdDeviation="1"/>
<feComposite in2="hardAlpha" operator="out"/>
<feColorMatrix type="matrix" values="0 0 0 0 0 0 0 0 0 0 0 0 0 0 0 0 0 0 0.6 0"/>
<feBlend mode="normal" in2="BackgroundImageFix" result="effect1_dropShadow_159_17"/>
<feColorMatrix in="SourceAlpha" type="matrix" values="0 0 0 0 0 0 0 0 0 0 0 0 0 0 0 0 0 0 127 0" result="hardAlpha"/>
<feOffset dy="4"/>
<feGaussianBlur stdDeviation="10"/>
<feComposite in2="hardAlpha" operator="out"/>
<feColorMatrix type="matrix" values="0 0 0 0 0 0 0 0 0 0 0 0 0 0 0 0 0 0 0.05 0"/>
<feBlend mode="normal" in2="effect1_dropShadow_159_17" result="effect2_dropShadow_159_17"/>
<feBlend mode="normal" in="SourceGraphic" in2="effect2_dropShadow_159_17" result="shape"/>
</filter>
</defs>
</svg>
